<?xml version="1.0" encoding="UTF-8" standalone="no"?>
<!DOCTYPE svg PUBLIC "-//W3C//DTD SVG 1.1//EN" "http://www.w3.org/Graphics/SVG/1.1/DTD/svg11.dtd">
<svg width="100%" height="100%" viewBox="0 0 1139 461" version="1.1" xmlns="http://www.w3.org/2000/svg" xmlns:xlink="http://www.w3.org/1999/xlink" xml:space="preserve" xmlns:serif="http://www.serif.com/" style="fill-rule:evenodd;clip-rule:evenodd;stroke-linejoin:round;stroke-miterlimit:2;">
    <g transform="matrix(1,0,0,1,-0.000054,-0.000107)">
        <g transform="matrix(1,0,0,1,-672.020833,-1337.335)">
            <g transform="matrix(4.166667,0,0,4.166667,0,0)">
                <g transform="matrix(1,0,0,1,0,229.261)">
                    <path d="M434.44,163.677L434.44,202.338L161.285,202.338L161.285,163.677L434.44,163.677ZM281.418,170.622L281.418,194.611L283.823,194.611L283.823,182.816L293.446,182.816L293.446,180.477L283.823,180.477L283.823,172.961L293.446,172.961L293.446,170.622L281.418,170.622ZM325.704,170.02C323.465,170.02 321.382,170.577 319.461,171.69C317.535,172.805 316.014,174.347 314.9,176.312C313.787,178.284 313.23,180.417 313.23,182.723C313.23,186.18 314.455,189.126 316.899,191.56C319.344,193.993 322.345,195.213 325.898,195.213C329.412,195.213 332.385,193.987 334.831,191.543C337.269,189.099 338.489,186.119 338.489,182.605C338.489,179.063 337.264,176.079 334.819,173.656C332.375,171.234 329.335,170.02 325.704,170.02ZM325.809,172.359C327.619,172.359 329.329,172.821 330.938,173.745C332.547,174.67 333.8,175.9 334.685,177.437C335.571,178.976 336.016,180.695 336.016,182.601C336.016,184.515 335.571,186.253 334.685,187.817C333.8,189.382 332.564,190.618 330.977,191.52C329.395,192.423 327.674,192.874 325.809,192.874C323.025,192.874 320.642,191.894 318.665,189.928C316.688,187.968 315.703,185.561 315.703,182.717C315.703,180.79 316.148,179.047 317.039,177.477C317.935,175.912 319.177,174.67 320.764,173.745C322.357,172.821 324.039,172.359 325.809,172.359ZM205.525,170.622L205.525,194.611L219.158,194.611L219.158,192.272L207.931,192.272L207.931,182.816L219.158,182.816L219.158,180.477L207.931,180.477L207.931,172.961L219.258,172.961L219.258,170.622L205.525,170.622ZM405.644,194.611L413.278,194.611C416.269,194.611 418.596,194.177 420.255,193.309C421.91,192.439 423.262,191.086 424.298,189.26C425.339,187.434 425.858,185.322 425.858,182.917C425.858,180.133 425.201,177.738 423.892,175.727C422.584,173.712 420.762,172.303 418.435,171.484C416.814,170.911 414.209,170.622 410.622,170.622L405.644,170.622L405.644,194.611ZM407.949,192.339L407.949,172.961L409.642,172.961C413.078,172.961 415.544,173.188 417.043,173.645C419.036,174.252 420.595,175.377 421.709,177.019C422.829,178.657 423.385,180.64 423.385,182.95C423.385,185.155 422.873,187.02 421.842,188.553C420.813,190.078 419.392,191.131 417.594,191.721C416.313,192.133 414.025,192.339 410.716,192.339L407.949,192.339ZM371.392,170.02C369.154,170.02 367.071,170.577 365.15,171.69C363.223,172.805 361.703,174.347 360.589,176.312C359.476,178.284 358.919,180.417 358.919,182.723C358.919,186.18 360.144,189.126 362.588,191.56C365.033,193.993 368.035,195.213 371.587,195.213C375.101,195.213 378.075,193.987 380.519,191.543C382.959,189.099 384.178,186.119 384.178,182.605C384.178,179.063 382.953,176.079 380.508,173.656C378.064,171.234 375.023,170.02 371.392,170.02ZM371.499,172.359C373.308,172.359 375.017,172.821 376.628,173.745C378.236,174.67 379.489,175.9 380.375,177.437C381.26,178.976 381.706,180.695 381.706,182.601C381.706,184.515 381.26,186.253 380.375,187.817C379.489,189.382 378.253,190.618 376.666,191.52C375.085,192.423 373.364,192.874 371.499,192.874C368.714,192.874 366.331,191.894 364.354,189.928C362.377,187.968 361.391,185.561 361.391,182.717C361.391,180.79 361.836,179.047 362.728,177.477C363.625,175.912 364.866,174.67 366.453,173.745C368.044,172.821 369.727,172.359 371.499,172.359ZM249.878,170.622L249.277,170.622L237.95,194.611L240.623,194.611L244.349,186.727L254.745,186.727L258.493,194.611L261.071,194.611L249.878,170.622ZM249.578,175.655L253.687,184.387L245.451,184.387L249.578,175.655ZM169.732,190.123C170.734,191.954 171.831,193.264 173.018,194.043C174.204,194.822 175.529,195.213 176.988,195.213C178.881,195.213 180.491,194.572 181.816,193.286C183.136,192.005 183.798,190.49 183.798,188.753C183.798,187.545 183.408,186.342 182.634,185.144C181.86,183.953 180.429,182.588 178.347,181.052C176.587,179.76 175.545,178.958 175.233,178.657C174.654,178.078 174.254,177.549 174.037,177.06C173.819,176.568 173.708,176.062 173.708,175.544C173.708,174.682 174.02,173.963 174.638,173.372C175.256,172.788 176.052,172.492 177.027,172.492C177.779,172.492 178.475,172.682 179.115,173.066C179.755,173.445 180.529,174.235 181.437,175.434L183.397,173.946C182.295,172.448 181.248,171.418 180.262,170.861C179.276,170.299 178.213,170.02 177.077,170.02C176.008,170.02 175.022,170.266 174.109,170.761C173.195,171.256 172.488,171.93 171.987,172.788C171.486,173.645 171.235,174.598 171.235,175.639C171.235,176.953 171.659,178.179 172.511,179.31C173.001,179.982 174.248,181.074 176.253,182.588C178.252,184.087 179.622,185.373 180.374,186.436C180.919,187.21 181.192,187.995 181.192,188.797C181.192,189.505 181.008,190.173 180.635,190.802C180.268,191.432 179.728,191.938 179.021,192.311C178.313,192.686 177.556,192.874 176.749,192.874C174.866,192.874 173.207,191.548 171.77,188.897L169.732,190.123Z" style="fill:rgb(15,101,177);"/>
                </g>
                <g transform="matrix(1,0,0,1,200.1772,336.9979)">
                    <path d="M0,50.092L-11.8,50.092L-27.5,21.853L-27.5,50.092L-38.527,50.092L-38.527,0.673L-26.76,0.673L-11.027,28.912L-11.027,0.673L0,0.673L0,50.092M16.339,50.092L5.312,50.092L5.312,0.606L16.339,0.606L16.339,50.092ZM60.245,50.092L48.445,50.092L32.745,21.853L32.745,50.092L21.718,50.092L21.718,0.673L33.484,0.673L49.218,28.912L49.218,0.673L60.245,0.673L60.245,50.092M97.562,11.699L76.584,11.699L76.584,19.835L97.562,19.835L97.562,30.863L76.584,30.863L76.584,39.066L97.562,39.066L97.562,50.092L65.557,50.092L65.557,0.606L76.584,0.606L76.584,0.673L97.562,0.673L97.562,11.699M132.593,11.699L113.968,11.699L113.968,19.835L132.593,19.835L132.593,30.863L113.968,30.863L113.968,50.092L102.941,50.092L102.941,0.673L132.593,0.673L132.593,11.699M148.999,50.092L137.974,50.092L137.974,0.606L148.999,0.606L148.999,50.092ZM172.833,50.092C170.37,50.092 168.016,49.621 165.797,48.681C163.579,47.739 161.617,46.485 159.936,44.915C158.255,43.346 156.899,41.508 155.891,39.403C154.882,37.295 154.379,35.099 154.379,32.813L165.405,32.813C165.405,33.619 165.618,34.393 166.043,35.132C166.469,35.871 167.018,36.532 167.691,37.115C168.363,37.698 169.148,38.169 170.043,38.528C170.941,38.886 171.86,39.066 172.801,39.066C173.698,39.066 174.582,38.886 175.457,38.528C176.331,38.169 177.116,37.709 177.81,37.148C178.505,36.589 179.066,35.939 179.492,35.199C179.917,34.459 180.152,33.687 180.197,32.879C179.883,32.611 179.39,32.364 178.718,32.14C178.045,31.916 177.306,31.703 176.499,31.501C175.692,31.299 174.863,31.12 174.011,30.963C173.16,30.806 172.421,30.66 171.792,30.527C170.043,30.212 168.162,29.798 166.145,29.282C164.127,28.767 162.245,28.038 160.497,27.097C158.749,26.155 157.292,24.912 156.127,23.365C154.959,21.82 154.379,19.813 154.379,17.348C154.379,15.062 154.882,12.865 155.891,10.759C156.899,8.652 158.255,6.802 159.936,5.211C161.617,3.62 163.579,2.354 165.797,1.412C168.016,0.471 170.37,0 172.833,0C175.255,0 177.586,0.471 179.805,1.412C182.035,2.354 183.985,3.62 185.666,5.211C187.347,6.802 188.703,8.652 189.712,10.759C190.72,12.865 191.224,15.062 191.224,17.348L180.197,17.348C180.197,16.541 179.984,15.756 179.558,14.994C179.132,14.233 178.573,13.56 177.877,12.977C177.183,12.395 176.398,11.924 175.524,11.566C174.65,11.206 173.743,11.029 172.801,11.029C171.86,11.029 170.952,11.206 170.078,11.566C169.204,11.924 168.418,12.395 167.725,12.977C167.03,13.56 166.469,14.221 166.043,14.961C165.618,15.7 165.405,16.474 165.405,17.281C165.673,17.549 166.145,17.796 166.817,18.02C167.49,18.244 168.252,18.468 169.081,18.694C169.91,18.916 170.75,19.108 171.602,19.264C172.464,19.421 173.227,19.567 173.899,19.701C175.603,20.06 177.474,20.474 179.492,20.946C181.519,21.415 183.391,22.121 185.128,23.063C186.854,24.004 188.299,25.248 189.476,26.795C190.641,28.341 191.224,30.347 191.224,32.813C191.224,35.099 190.72,37.295 189.712,39.403C188.703,41.508 187.347,43.346 185.666,44.915C183.985,46.485 182.035,47.739 179.805,48.681C177.586,49.621 175.255,50.092 172.833,50.092M223.095,0.606L234.122,0.606L234.122,50.092L223.095,50.092L223.095,30.863L207.563,30.863L207.563,50.092L196.536,50.092L196.536,0.606L207.563,0.606L207.563,19.835L223.095,19.835L223.095,0.606" style="fill:rgb(237,28,36);"/>
                </g>
                <g transform="matrix(1,0,0,1,427.8145,326.6304)">
                    <path d="M0,-0.476L0.713,-0.476C1.494,-0.476 2.173,-0.714 2.173,-1.393C2.173,-1.936 1.834,-2.31 0.815,-2.31C0.407,-2.31 0.17,-2.276 0,-2.242L0,-0.476ZM0,2.714L-1.052,2.714L-1.052,-2.955C-0.475,-3.057 0.137,-3.124 0.917,-3.124C1.867,-3.124 2.343,-2.955 2.716,-2.683C3.056,-2.445 3.294,-2.004 3.294,-1.495C3.294,-0.783 2.784,-0.34 2.173,-0.137L2.173,-0.069C2.683,0.134 2.954,0.577 3.124,1.289C3.294,2.172 3.396,2.511 3.531,2.714L2.445,2.714C2.275,2.511 2.139,2.003 2.003,1.221C1.867,0.61 1.494,0.338 0.68,0.338L0,0.338L0,2.714ZM0.951,-4.72C-1.493,-4.72 -3.36,-2.717 -3.36,-0.272C-3.36,2.24 -1.493,4.209 1.019,4.209C3.463,4.243 5.263,2.24 5.263,-0.239C5.263,-2.717 3.463,-4.72 0.985,-4.72L0.951,-4.72ZM1.019,-5.67C4.074,-5.67 6.484,-3.294 6.484,-0.272C6.484,2.817 4.074,5.194 0.985,5.194C-2.104,5.194 -4.549,2.817 -4.549,-0.272C-4.549,-3.294 -2.104,-5.67 0.985,-5.67L1.019,-5.67Z" style="fill:rgb(15,101,177);fill-rule:nonzero;"/>
                </g>
            </g>
        </g>
    </g>
</svg>
