<?xml version="1.0" encoding="UTF-8" standalone="no"?>
<!DOCTYPE svg PUBLIC "-//W3C//DTD SVG 1.1//EN" "http://www.w3.org/Graphics/SVG/1.1/DTD/svg11.dtd">
<svg width="100%" height="100%" viewBox="0 0 729 235" version="1.1" xmlns="http://www.w3.org/2000/svg" xmlns:xlink="http://www.w3.org/1999/xlink" xml:space="preserve" xmlns:serif="http://www.serif.com/" style="fill-rule:evenodd;clip-rule:evenodd;stroke-linejoin:round;stroke-miterlimit:2;">
    <g transform="matrix(1,0,0,1,-6875.477083,-2844.052917)">
        <g transform="matrix(4.166667,0,0,4.166667,5580.7125,0)">
            <g transform="matrix(1,0,0,1,370.6815,689.3679)">
                <path d="M0,1.013C-1.059,-0.001 -2.196,-0.933 -3.403,-1.773C-3.403,-1.59 -3.407,-1.429 -3.421,-1.362C-3.461,-1.163 -2.982,-0.246 -2.623,0.153C-2.265,0.552 -1.905,1.549 -1.546,1.669C-1.187,1.789 -0.31,2.786 -0.07,2.706C0.169,2.626 -0.11,1.549 -0.07,1.271C-0.06,1.193 -0.032,1.103 0,1.013" style="fill:white;fill-rule:nonzero;"/>
            </g>
        </g>
        <g transform="matrix(4.166667,0,0,4.166667,5580.7125,0)">
            <g transform="matrix(1,0,0,1,373.8534,711.1007)">
                <path d="M0,-17.128C-0.41,-16.592 -1.023,-15.649 -0.889,-14.919C-0.689,-13.841 -0.229,-10.012 -0.28,-9.294C-0.33,-8.576 -0.689,-5.864 -0.052,-5.226C0.587,-4.587 1.226,-2.513 1.704,-1.955C2.183,-1.396 1.983,-0.853 2.621,-0.427C3.26,0 4.416,-0.838 4.416,-0.838L5.334,-1.915L5.431,-2.365C5.055,-7.874 3.098,-12.946 0,-17.128" style="fill:white;fill-rule:nonzero;"/>
            </g>
        </g>
        <g transform="matrix(4.166667,0,0,4.166667,5580.7125,0)">
            <g transform="matrix(-0.512729,0.858551,0.858551,0.512729,365.700904,685.124243)">
                <path d="M1.43,-2.52C1.516,-1.973 1.59,-1.557 1.632,-1.437C1.795,-0.967 1.43,0.812 1.43,0.812L1.243,0.7C1.241,-0.373 1.307,-1.447 1.43,-2.52" style="fill:white;fill-rule:nonzero;"/>
            </g>
        </g>
        <g transform="matrix(4.166667,0,0,4.166667,5580.7125,0)">
            <g transform="matrix(1,0,0,1,368.7987,704.0337)">
                <path d="M0,15.646C-0.027,15.6 -0.055,15.555 -0.083,15.509L-1.223,14.476C-1.284,14.452 -1.339,14.431 -1.4,14.408L-5.959,14.444C-6.098,14.445 -6.212,14.338 -6.222,14.2L-6.357,12.121C-6.362,12.051 -6.394,11.987 -6.445,11.942C-6.74,11.686 -7.779,10.825 -8.557,10.666C-8.587,10.665 -8.614,10.664 -8.645,10.663L-10.468,10.899C-10.621,10.919 -10.757,10.803 -10.763,10.649L-10.786,9.984C-10.79,9.884 -10.852,9.794 -10.944,9.754L-12.787,8.959C-12.814,8.952 -12.841,8.946 -12.868,8.939L-15.818,8.702L-18.278,8.51C-18.336,8.525 -18.388,8.54 -18.445,8.555L-20.196,9.77C-20.275,9.824 -20.375,9.833 -20.462,9.79C-20.695,9.671 -21.175,9.447 -21.429,9.447C-21.774,9.447 -22.094,9.846 -22.572,9.633C-22.975,9.454 -23.508,8.637 -23.669,8.381C-23.7,8.331 -23.713,8.273 -23.705,8.215C-23.67,7.889 -23.558,6.756 -23.716,6.416C-23.859,6.109 -25.026,5.959 -25.557,5.907C-25.7,5.892 -25.804,5.763 -25.789,5.62L-25.662,4.411C-25.655,4.384 -25.648,4.358 -25.642,4.332L-25.227,3.363C-25.195,3.291 -25.197,3.211 -25.233,3.142C-25.331,2.953 -25.532,2.586 -25.631,2.586C-25.764,2.586 -26.509,2.852 -26.588,3.171C-26.647,3.408 -26.925,4.082 -27.065,4.416C-27.112,4.528 -27.231,4.592 -27.351,4.57L-29.103,4.251C-29.163,4.241 -29.217,4.209 -29.257,4.162C-29.472,3.906 -30.166,3.037 -30.099,2.586C-30.019,2.055 -29.247,-0.685 -28.981,-0.845C-28.716,-1.004 -27.838,-1.243 -27.359,-1.375C-26.88,-1.509 -24.088,-1.642 -23.37,-1.083C-22.652,-0.525 -22.546,0.858 -22.147,0.885C-21.757,0.911 -21.34,-0.084 -21.698,-1.625C-21.713,-1.688 -21.705,-1.752 -21.675,-1.809C-21.474,-2.18 -20.649,-3.636 -19.887,-4.168C-19.009,-4.78 -18.876,-6.136 -18.53,-6.402C-18.185,-6.667 -17.866,-6.774 -17.467,-7.199C-17.068,-7.625 -16.562,-8.237 -16.11,-8.423C-15.659,-8.609 -15.153,-8.981 -15.286,-9.407C-15.419,-9.833 -16.19,-10.285 -16.297,-10.55C-16.403,-10.816 -13.371,-10.949 -13.105,-11.455C-12.84,-11.959 -14.642,-12.571 -15.017,-12.731C-15.393,-12.89 -15.685,-14.193 -16.19,-14.619C-16.493,-14.874 -16.662,-14.642 -16.749,-14.415C-16.806,-14.266 -16.981,-14.203 -17.121,-14.283C-17.609,-14.562 -18.593,-15.112 -19.109,-15.303C-19.233,-15.349 -19.372,-15.292 -19.43,-15.173C-19.594,-14.841 -19.884,-14.143 -19.728,-13.635C-19.617,-13.278 -19.606,-13.078 -19.622,-12.967C-19.632,-12.896 -19.674,-12.839 -19.732,-12.799C-19.884,-12.696 -20.281,-12.399 -20.259,-12.119C-20.232,-11.773 -20.286,-11.029 -20.632,-11.135C-20.977,-11.242 -21.217,-12.81 -21.322,-12.837C-21.429,-12.863 -24.088,-13.156 -24.115,-14.3C-24.142,-15.443 -23.557,-15.367 -23.557,-15.367C-23.557,-15.367 -21.748,-16.188 -21.509,-16.161C-21.338,-16.142 -21.303,-16.897 -21.297,-17.329C-21.294,-17.485 -21.428,-17.608 -21.583,-17.592C-22.363,-17.51 -24.518,-17.321 -25.338,-17.624C-26.349,-17.996 -26.562,-18.528 -27.066,-18.714C-27.25,-18.782 -27.51,-18.859 -27.768,-18.93C-28.331,-19.085 -28.937,-19.048 -29.465,-18.799C-30.289,-18.411 -31.091,-17.984 -31.868,-17.521C-32.333,-17.244 -32.666,-16.794 -32.816,-16.276C-33.081,-15.364 -33.653,-14.12 -33.874,-13.476C-34.115,-12.773 -34.104,-11.964 -34.093,-11.701C-34.109,-11.646 -34.124,-11.599 -34.142,-11.543C-34.466,-11.118 -36.145,-8.909 -36.48,-8.237C-36.853,-7.492 -36.613,-6.402 -36.294,-5.152C-36.151,-4.593 -35.924,-3.472 -35.716,-2.401C-35.655,-2.093 -35.202,-2.134 -35.198,-2.449C-35.194,-2.747 -34.773,-2.807 -34.688,-2.522C-34.243,-1.047 -33.629,0.925 -33.448,1.203C-33.156,1.655 -33.369,2.293 -33.316,2.958C-33.263,3.624 -30.71,5.299 -29.806,5.644C-28.902,5.99 -28.396,6.176 -27.599,6.787C-26.801,7.399 -25.816,7.188 -25.524,7.479C-25.231,7.772 -24.646,9.048 -23.61,9.846C-22.572,10.643 -21.163,10.883 -20.791,10.883C-20.672,10.883 -20.574,10.889 -20.497,10.896C-20.36,10.909 -20.261,11.023 -20.262,11.16L-20.284,12.849C-20.285,12.945 -20.335,13.031 -20.421,13.075C-20.83,13.285 -22.028,14.009 -22.16,15.364C-22.308,16.867 -21.392,18.135 -21.243,18.329C-21.231,18.348 -21.222,18.365 -21.21,18.384L-19.843,21.39C-19.819,21.439 -19.782,21.48 -19.735,21.508C-19.303,21.752 -17.067,23.037 -16.815,23.541C-16.536,24.1 -18.132,32.117 -18.49,32.596C-18.767,32.964 -18.972,33.686 -19.053,34C-19.077,34.099 -19.043,34.201 -18.965,34.267C-18.775,34.425 -18.376,34.691 -17.835,34.727C-17.798,34.728 -17.761,34.729 -17.724,34.73C-17.552,34.731 -17.369,34.712 -17.174,34.655C-17.123,34.64 -17.076,34.608 -17.043,34.567L-15.811,33.073C-15.79,33.049 -15.774,33.021 -15.765,32.991C-15.697,32.787 -15.392,31.929 -14.9,31.718C-14.342,31.479 -12.467,31.319 -11.391,30.043C-11.391,30.043 -9.865,28.517 -7.937,27.364C-7.899,27.342 -7.87,27.313 -7.848,27.274C-7.723,27.058 -7.265,26.252 -6.923,25.536C-6.524,24.698 -3.532,24.26 -2.854,23.382C-2.255,22.606 -2.03,19.994 -1.985,19.396C-1.979,19.318 -1.941,19.25 -1.878,19.206C-1.421,18.883 0.447,17.436 0,15.646" style="fill:white;fill-rule:nonzero;"/>
            </g>
        </g>
        <g transform="matrix(4.166667,0,0,4.166667,5580.7125,0)">
            <g transform="matrix(1,0,0,1,357.7274,686.5588)">
                <path d="M0,-1.57C-0.16,-1.89 -2.771,-3.299 -3.99,-3.792C-4.364,-3.949 -4.893,-3.882 -4.894,-3.882C-5.637,-3.68 -7.515,-3.152 -7.738,-2.892C-8.018,-2.567 -6.263,-2.208 -5.704,-2.089C-5.146,-1.969 -4.108,-1.091 -3.67,-0.613C-3.23,-0.133 -3.87,0.385 -3.87,0.385C-3.87,0.385 -2.633,1.541 -2.313,1.661C-1.994,1.781 -1.316,2.028 -1.077,2.083C-0.838,2.139 -0.278,2.379 -0.278,2.379C-0.278,2.379 -1.023,0.425 -0.812,-0.014C-0.599,-0.453 -0.278,-0.792 -0.278,-0.792C-0.278,-0.792 0.199,-1.171 0,-1.57" style="fill:white;fill-rule:nonzero;"/>
            </g>
        </g>
        <g transform="matrix(4.166667,0,0,4.166667,5580.7125,0)">
            <g transform="matrix(1,0,0,1,373.5975,701.7157)">
                <path d="M0,24.921C0,24.921 -0.304,23.713 -0.089,19.977C0.685,6.539 -4.6,2.066 -4.6,2.066C-8.446,-1.561 -12.433,-1.67 -18.144,-1.454C-23.854,-1.237 -43.493,1.479 -62.854,16.419C-62.854,16.419 -38.759,0.475 -14.844,1.12C-9.806,1.255 -2.959,3.36 -1.76,15.281C-1.581,17.058 -1.471,22.42 -1.471,22.42C-1.455,22.804 -1.446,23.189 -1.437,23.573C-1.417,24.414 -1.213,26.591 0.389,25.908C2.36,25.068 5.818,17.096 5.818,17.096C5.818,17.096 1.398,24.218 0,24.921" style="fill:white;fill-rule:nonzero;"/>
            </g>
        </g>
        <g transform="matrix(4.166667,0,0,4.166667,5580.7125,0)">
            <g transform="matrix(1,0,0,1,372.6551,706.774)">
                <path d="M0,22.019C-0.731,22.054 -1.332,21.442 -1.334,20.709C-1.335,20.29 -1.334,19.738 -1.329,19.037C-1.288,13.412 -2.193,9.471 -3.113,6.948C-4.359,3.535 -7.247,0.934 -10.796,0.156C-12.46,-0.209 -14.302,-0.32 -16.295,-0.245C-21.078,-0.066 -37.538,0.441 -57.111,14.491C-57.111,14.491 -34.553,1.495 -14.497,1.88C-9.428,1.977 -3.608,3.808 -2.457,16.592C-2.297,18.37 -2.314,18.867 -2.314,18.867C-2.299,19.251 -2.31,18.867 -2.299,19.251C-2.276,20.091 -2.507,22.171 -0.976,22.249C0.766,22.339 1.863,21.363 1.863,21.363C1.863,21.363 1.08,21.967 0,22.019" style="fill:white;fill-rule:nonzero;"/>
            </g>
        </g>
        <g transform="matrix(4.166667,0,0,4.166667,5580.7125,0)">
            <g transform="matrix(1,0,0,1,424.4715,731.6298)">
                <path d="M0,-3.142C0.381,-3.142 0.686,-3.058 0.896,-2.966L1.122,-3.81C0.938,-3.916 0.509,-4.021 -0.05,-4.021C-1.489,-4.021 -2.644,-3.129 -2.644,-1.507C-2.644,-0.153 -1.799,0.879 -0.154,0.879C0.424,0.879 0.868,0.766 1.065,0.674L0.904,-0.172C0.691,-0.089 0.331,-0.017 0.007,-0.017C-0.953,-0.017 -1.517,-0.617 -1.517,-1.569C-1.517,-2.628 -0.847,-3.142 0,-3.142" style="fill:white;fill-rule:nonzero;"/>
            </g>
        </g>
        <g transform="matrix(4.166667,0,0,4.166667,5580.7125,0)">
            <g transform="matrix(1,0,0,1,411.159,729.6746)">
                <path d="M0,0.759L1.799,0.759L1.799,-0.142L0,-0.142L0,-1.16L1.9,-1.16L1.9,-2.064L-1.107,-2.064L-1.107,2.823L2.011,2.823L2.011,1.919L0,1.919L0,0.759Z" style="fill:white;fill-rule:nonzero;"/>
            </g>
        </g>
        <g transform="matrix(4.166667,0,0,4.166667,5580.7125,0)">
            <g transform="matrix(1,0,0,1,391.4393,731.6298)">
                <path d="M0,-3.142C0.381,-3.142 0.686,-3.058 0.896,-2.966L1.121,-3.81C0.938,-3.916 0.509,-4.021 -0.05,-4.021C-1.489,-4.021 -2.644,-3.129 -2.644,-1.507C-2.644,-0.153 -1.799,0.879 -0.155,0.879C0.423,0.879 0.868,0.766 1.065,0.674L0.904,-0.172C0.691,-0.089 0.331,-0.017 0.007,-0.017C-0.954,-0.017 -1.517,-0.617 -1.517,-1.569C-1.517,-2.628 -0.847,-3.142 0,-3.142" style="fill:white;fill-rule:nonzero;"/>
            </g>
        </g>
        <g transform="matrix(4.166667,0,0,4.166667,5580.7125,0)">
            <g transform="matrix(1,0,0,1,397.0946,728.4487)">
                <path d="M0,3.211C-0.734,3.211 -1.151,2.505 -1.151,1.62C-1.151,0.728 -0.749,-0 0.007,-0C0.799,-0 1.151,0.805 1.151,1.612C1.151,2.477 0.763,3.211 0,3.211M0.05,-0.85C-1.35,-0.85 -2.288,0.161 -2.288,1.64C-2.288,3.069 -1.42,4.061 -0.043,4.061C1.236,4.061 2.287,3.198 2.287,1.599C2.287,0.204 1.483,-0.85 0.05,-0.85" style="fill:white;fill-rule:nonzero;"/>
            </g>
        </g>
        <g transform="matrix(4.166667,0,0,4.166667,5580.7125,0)">
            <g transform="matrix(1,0,0,1,405.6131,732.4984)">
                <path d="M0,-4.888L-0.523,-3.265C-0.689,-2.723 -0.857,-2.058 -0.98,-1.492L-1.01,-1.492C-1.118,-2.065 -1.264,-2.695 -1.423,-3.261L-1.902,-4.888L-3.376,-4.888L-3.688,0L-2.664,0L-2.576,-1.851C-2.541,-2.468 -2.512,-3.215 -2.497,-3.882L-2.475,-3.882C-2.359,-3.237 -2.191,-2.548 -2.039,-1.967L-1.524,-0.083L-0.646,-0.083L-0.051,-1.978C0.123,-2.549 0.341,-3.261 0.493,-3.882L0.515,-3.882C0.508,-3.173 0.537,-2.463 0.559,-1.868L0.632,0L1.705,0L1.451,-4.888L0,-4.888Z" style="fill:white;fill-rule:nonzero;"/>
            </g>
        </g>
        <g transform="matrix(4.166667,0,0,4.166667,5580.7125,0)">
            <g transform="matrix(1,0,0,1,411.0448,726.5509)">
                <path d="M0,0.87L0.937,0.87L1.777,0L0.592,0L0,0.87Z" style="fill:white;fill-rule:nonzero;"/>
            </g>
        </g>
        <g transform="matrix(4.166667,0,0,4.166667,5580.7125,0)">
            <g transform="matrix(1,0,0,1,417.369,730.2862)">
                <path d="M0,-0.502L-0.422,-0.502L-0.422,-1.813C-0.345,-1.828 -0.189,-1.85 0.063,-1.85C0.55,-1.843 0.853,-1.617 0.853,-1.186C0.853,-0.771 0.537,-0.502 0,-0.502M1.102,-0.081L1.102,-0.103C1.521,-0.255 1.966,-0.684 1.966,-1.307C1.966,-1.757 1.805,-2.098 1.515,-2.33C1.166,-2.606 0.658,-2.714 -0.066,-2.714C-0.654,-2.714 -1.184,-2.67 -1.54,-2.612L-1.54,2.212L-0.442,2.212L-0.442,0.29L-0.117,0.29C0.34,0.297 0.55,0.464 0.681,1.072C0.817,1.682 0.941,2.073 1.021,2.212L2.153,2.212C2.059,2.022 1.906,1.386 1.754,0.833C1.639,0.385 1.449,0.058 1.102,-0.081" style="fill:white;fill-rule:nonzero;"/>
            </g>
        </g>
        <g transform="matrix(4.166667,0,0,4.166667,5580.7125,0)">
            <g transform="matrix(1,0,0,1,0,618.218)">
                <rect x="428.243" y="109.38" width="1.112" height="4.912" style="fill:white;"/>
            </g>
        </g>
        <g transform="matrix(4.166667,0,0,4.166667,5580.7125,0)">
            <g transform="matrix(1,0,0,1,434.3573,728.4487)">
                <path d="M0,3.211C-0.734,3.211 -1.151,2.505 -1.151,1.62C-1.151,0.728 -0.749,-0 0.007,-0C0.799,-0 1.151,0.805 1.151,1.612C1.151,2.477 0.763,3.211 0,3.211M0.05,-0.85C-1.349,-0.85 -2.288,0.161 -2.288,1.64C-2.288,3.069 -1.42,4.061 -0.043,4.061C1.237,4.061 2.288,3.198 2.288,1.599C2.288,0.204 1.484,-0.85 0.05,-0.85" style="fill:white;fill-rule:nonzero;"/>
            </g>
        </g>
        <g transform="matrix(4.166667,0,0,4.166667,5580.7125,0)">
            <g transform="matrix(1,0,0,1,466.0985,730.2862)">
                <path d="M0,-0.502L-0.421,-0.502L-0.421,-1.813C-0.344,-1.828 -0.189,-1.85 0.064,-1.85C0.551,-1.843 0.854,-1.617 0.854,-1.186C0.854,-0.771 0.537,-0.502 0,-0.502M1.106,-0.08L1.106,-0.102C1.528,-0.255 1.974,-0.686 1.974,-1.312C1.974,-1.764 1.812,-2.106 1.521,-2.339C1.171,-2.617 0.66,-2.726 -0.067,-2.726C-0.658,-2.726 -1.19,-2.682 -1.548,-2.624L-1.548,2.224L-0.445,2.224L-0.445,0.292L-0.119,0.292C0.341,0.299 0.552,0.468 0.683,1.079C0.82,1.691 0.944,2.084 1.024,2.224L2.163,2.224C2.067,2.033 1.914,1.394 1.761,0.839C1.646,0.388 1.455,0.06 1.106,-0.08" style="fill:white;fill-rule:nonzero;"/>
            </g>
        </g>
        <g transform="matrix(4.166667,0,0,4.166667,5580.7125,0)">
            <g transform="matrix(1,0,0,1,0,618.218)">
                <rect x="470.792" y="109.38" width="1.113" height="4.912" style="fill:white;"/>
            </g>
        </g>
        <g transform="matrix(4.166667,0,0,4.166667,5580.7125,0)">
            <g transform="matrix(1,0,0,1,459.8875,729.6725)">
                <path d="M0,0.763L1.807,0.763L1.807,-0.142L0,-0.142L0,-1.165L1.909,-1.165L1.909,-2.074L-1.113,-2.074L-1.113,2.837L2.02,2.837L2.02,1.929L0,1.929L0,0.763Z" style="fill:white;fill-rule:nonzero;"/>
            </g>
        </g>
        <g transform="matrix(4.166667,0,0,4.166667,5580.7125,0)">
            <g transform="matrix(1,0,0,1,476.9071,728.4487)">
                <path d="M0,3.211C-0.735,3.211 -1.151,2.505 -1.151,1.62C-1.151,0.728 -0.75,-0 0.006,-0C0.799,-0 1.15,0.805 1.15,1.612C1.15,2.477 0.763,3.211 0,3.211M0.049,-0.85C-1.35,-0.85 -2.288,0.161 -2.288,1.64C-2.288,3.069 -1.42,4.061 -0.043,4.061C1.236,4.061 2.287,3.198 2.287,1.599C2.287,0.204 1.483,-0.85 0.049,-0.85" style="fill:white;fill-rule:nonzero;"/>
            </g>
        </g>
        <g transform="matrix(4.166667,0,0,4.166667,5580.7125,0)">
            <g transform="matrix(1,0,0,1,483.4081,730.2862)">
                <path d="M0,-0.502L-0.421,-0.502L-0.421,-1.813C-0.344,-1.828 -0.188,-1.85 0.064,-1.85C0.551,-1.843 0.854,-1.617 0.854,-1.186C0.854,-0.771 0.537,-0.502 0,-0.502M1.106,-0.08L1.106,-0.102C1.528,-0.255 1.975,-0.686 1.975,-1.312C1.975,-1.764 1.812,-2.106 1.521,-2.339C1.171,-2.617 0.66,-2.726 -0.067,-2.726C-0.658,-2.726 -1.19,-2.682 -1.548,-2.624L-1.548,2.224L-0.445,2.224L-0.445,0.292L-0.119,0.292C0.341,0.299 0.552,0.468 0.683,1.079C0.82,1.691 0.944,2.084 1.024,2.224L2.163,2.224C2.067,2.033 1.915,1.394 1.762,0.839C1.646,0.388 1.455,0.06 1.106,-0.08" style="fill:white;fill-rule:nonzero;"/>
            </g>
        </g>
        <g transform="matrix(4.166667,0,0,4.166667,5580.7125,0)">
            <g transform="matrix(1,0,0,1,441.8329,729.6725)">
                <path d="M0,0.763L1.808,0.763L1.808,-0.142L0,-0.142L0,-1.165L1.91,-1.165L1.91,-2.074L-1.112,-2.074L-1.112,2.837L2.021,2.837L2.021,1.929L0,1.929L0,0.763Z" style="fill:white;fill-rule:nonzero;"/>
            </g>
        </g>
        <g transform="matrix(4.166667,0,0,4.166667,5580.7125,0)">
            <g transform="matrix(1,0,0,1,450.2879,732.5101)">
                <path d="M0,-4.912L-1.262,-4.912L-1.677,-4.015C-1.801,-3.73 -1.888,-3.513 -2.012,-3.2L-2.027,-3.2C-2.149,-3.475 -2.252,-3.724 -2.398,-4.022L-2.829,-4.912L-4.105,-4.912L-2.733,-2.485L-4.156,0L-2.887,0L-2.484,-0.891C-2.325,-1.225 -2.201,-1.488 -2.099,-1.772L-2.085,-1.772C-1.945,-1.488 -1.83,-1.232 -1.647,-0.891L-1.202,0L0.081,0L-1.377,-2.514L0,-4.912Z" style="fill:white;fill-rule:nonzero;"/>
            </g>
        </g>
        <g transform="matrix(4.166667,0,0,4.166667,5580.7125,0)">
            <g transform="matrix(1,0,0,1,452.5135,731.5803)">
                <path d="M0,-3.053L1.328,-3.053L1.328,0.929L2.441,0.929L2.441,-3.053L3.782,-3.053L3.782,-3.982L0,-3.982L0,-3.053Z" style="fill:white;fill-rule:nonzero;"/>
            </g>
        </g>
        <g transform="matrix(4.166667,0,0,4.166667,5580.7125,0)">
            <g transform="matrix(1,0,0,1,482.8485,684.9917)">
                <path d="M0,-0.189L0.334,-0.189C0.499,-0.189 0.631,-0.231 0.731,-0.317C0.831,-0.403 0.881,-0.512 0.881,-0.644C0.881,-0.798 0.837,-0.909 0.748,-0.976C0.66,-1.043 0.52,-1.077 0.327,-1.077L0,-1.077L0,-0.189ZM1.342,-0.656C1.342,-0.491 1.298,-0.345 1.21,-0.218C1.123,-0.091 1,0.003 0.841,0.064L1.577,1.287L1.058,1.287L0.417,0.191L0,0.191L0,1.287L-0.458,1.287L-0.458,-1.47L0.35,-1.47C0.691,-1.47 0.942,-1.402 1.103,-1.269C1.263,-1.135 1.342,-0.93 1.342,-0.656M-1.603,-0.093C-1.603,0.264 -1.513,0.597 -1.333,0.908C-1.154,1.218 -0.909,1.462 -0.599,1.641C-0.289,1.819 0.044,1.908 0.398,1.908C0.758,1.908 1.09,1.818 1.397,1.639C1.705,1.459 1.949,1.217 2.13,0.911C2.31,0.604 2.4,0.269 2.4,-0.093C2.4,-0.452 2.311,-0.785 2.131,-1.092C1.951,-1.399 1.709,-1.644 1.402,-1.824C1.097,-2.004 0.762,-2.094 0.398,-2.094C0.04,-2.094 -0.293,-2.005 -0.601,-1.825C-0.908,-1.646 -1.151,-1.403 -1.332,-1.097C-1.513,-0.791 -1.603,-0.456 -1.603,-0.093M-1.928,-0.093C-1.928,-0.505 -1.824,-0.892 -1.618,-1.253C-1.412,-1.614 -1.128,-1.898 -0.768,-2.107C-0.407,-2.315 -0.018,-2.419 0.398,-2.419C0.812,-2.419 1.198,-2.316 1.559,-2.11C1.919,-1.903 2.204,-1.62 2.412,-1.259C2.621,-0.898 2.725,-0.51 2.725,-0.093C2.725,0.313 2.625,0.695 2.425,1.051C2.225,1.408 1.944,1.694 1.583,1.908C1.223,2.123 0.827,2.23 0.398,2.23C-0.028,2.23 -0.422,2.123 -0.783,1.91C-1.144,1.696 -1.425,1.411 -1.625,1.055C-1.827,0.698 -1.928,0.315 -1.928,-0.093" style="fill:white;fill-rule:nonzero;"/>
            </g>
        </g>
        <g transform="matrix(4.166667,0,0,4.166667,5580.7125,0)">
            <g transform="matrix(1,0,0,1,402.7625,691.0113)">
                <path d="M0,2.975L2.264,-2.173L0.785,5.148L0,2.975Z" style="fill:white;"/>
            </g>
        </g>
        <g transform="matrix(4.166667,0,0,4.166667,5580.7125,0)">
            <g transform="matrix(1,0,0,1,400.3006,720.7498)">
                <path d="M0,-31.177L-11.505,0.734L-7.412,0.734L1.374,-23.704C2.106,-25.74 2.906,-27.752 3.773,-29.735L4.726,-31.911L1.046,-31.911C0.577,-31.911 0.159,-31.618 0,-31.177" style="fill:white;fill-rule:nonzero;"/>
            </g>
        </g>
        <g transform="matrix(4.166667,0,0,4.166667,5580.7125,0)">
            <g transform="matrix(1,0,0,1,412.3563,721.4824)">
                <path d="M0,-32.644L-4.093,-32.644L7.678,0L8.004,0L9.931,-5.152L0,-32.644Z" style="fill:white;fill-rule:nonzero;"/>
            </g>
        </g>
        <g transform="matrix(4.166667,0,0,4.166667,5580.7125,0)">
            <g transform="matrix(1,0,0,1,455.6834,700.0499)">
                <path d="M0,10.203L0,0C0,-4.474 -3.489,-7.606 -7.785,-7.606C-12.081,-7.606 -15.571,-4.474 -15.571,0L-15.571,10.203C-15.571,14.677 -12.081,17.81 -7.785,17.81C-3.489,17.81 0,14.677 0,10.203M3.849,0L3.849,10.203C3.849,17.139 -1.655,21.434 -7.785,21.434C-13.916,21.434 -19.42,17.139 -19.42,10.203L-19.42,0C-19.42,-6.935 -13.916,-11.231 -7.785,-11.231C-1.655,-11.231 3.849,-6.935 3.849,0" style="fill:white;fill-rule:nonzero;"/>
            </g>
        </g>
        <g transform="matrix(4.166667,0,0,4.166667,5580.7125,0)">
            <g transform="matrix(1,0,0,1,474.1405,703.2005)">
                <path d="M0,3.902C-4.265,3.902 -7.44,0.499 -7.44,-3.402C-7.44,-7.305 -4.265,-10.707 0,-10.707C4.355,-10.707 7.576,-7.305 7.576,-3.402C7.576,0.499 4.355,3.902 0,3.902M0,-14.382C-6.487,-14.382 -11.342,-9.346 -11.342,-3.402C-11.342,2.496 -6.487,7.622 0,7.622C0.727,7.622 1.406,7.576 2.087,7.441L-5.126,18.284L-0.59,18.284L9.709,2.496C10.844,0.771 11.433,-1.271 11.433,-3.402C11.433,-9.346 6.578,-14.382 0,-14.382" style="fill:white;fill-rule:nonzero;"/>
            </g>
        </g>
        <g transform="matrix(4.166667,0,0,4.166667,5580.7125,0)">
            <g transform="matrix(1,0,0,1,412.7049,688.8379)">
                <path d="M0,32.645L4.092,32.645L-7.679,0L-8.005,0L-9.932,5.152L0,32.645Z" style="fill:white;fill-rule:nonzero;"/>
            </g>
        </g>
        <g transform="matrix(4.166667,0,0,4.166667,5580.7125,0)">
            <g transform="matrix(1,0,0,1,424.7596,689.5726)">
                <path d="M0,31.175L11.504,-0.734L7.412,-0.734L-0.57,21.467C-1.838,24.993 -3.224,28.476 -4.726,31.909L-1.046,31.909C-0.577,31.909 -0.159,31.615 0,31.175" style="fill:white;fill-rule:nonzero;"/>
            </g>
        </g>
    </g>
</svg>
