<?xml version="1.0" encoding="UTF-8" standalone="no"?>
<!DOCTYPE svg PUBLIC "-//W3C//DTD SVG 1.1//EN" "http://www.w3.org/Graphics/SVG/1.1/DTD/svg11.dtd">
<svg width="100%" height="100%" viewBox="0 0 1137 585" version="1.1" xmlns="http://www.w3.org/2000/svg" xmlns:xlink="http://www.w3.org/1999/xlink" xml:space="preserve" xmlns:serif="http://www.serif.com/" style="fill-rule:evenodd;clip-rule:evenodd;stroke-linejoin:round;stroke-miterlimit:2;">
    <g transform="matrix(1,0,0,1,-673.544583,-657.5411)">
        <g transform="matrix(4.166667,0,0,4.166667,0,0)">
            <g transform="matrix(1,0,0,1,343.833,285.3453)">
                <path d="M0,-51.477C0.045,-46.306 1.347,-41.434 3.904,-36.861C6.46,-32.289 10.159,-28.711 15,-26.13C24.048,-21.306 33.96,-21.932 44.741,-28.008C35.346,-18.036 23.94,-10.025 10.528,-3.977C-2.889,2.07 -16.163,5.514 -29.302,6.358C-42.44,7.202 -53.272,5.298 -61.801,0.651L-63.825,4.158C-50.657,11.38 -35.299,14.066 -17.746,12.212C-0.196,10.358 16.189,4.952 31.411,-4.005C46.63,-12.961 57.54,-23.63 64.142,-36.011C67.651,-42.598 69.665,-49.195 70.181,-55.798L62.774,-52.653C61.061,-51.926 59.348,-51.193 57.633,-50.468C56.892,-50.155 56.24,-49.755 55.646,-49.292C54.365,-48.295 53.352,-47.004 52.264,-45.656C47.522,-39.779 41.786,-33.896 34.325,-31.73C27.273,-29.682 19.28,-32.184 14.783,-38.045C10.898,-43.108 10.013,-49.713 9.842,-55.91C9.765,-58.708 8.563,-60.216 6.679,-62.247C6.46,-62.483 3.244,-65.447 3.295,-65.543C1.051,-61.335 -0.048,-56.648 0,-51.477" style="fill:rgb(15,101,177);"/>
            </g>
            <g transform="matrix(1,0,0,1,290.2471,269.9799)">
                <path d="M0,12.943C1.536,14.737 5.576,16.412 7.366,15.624C16.606,11.561 25.488,6.681 34.495,2.087C34.191,1.261 33.89,0.436 33.585,-0.389C18.593,3.315 4.247,-0.542 -10.75,-3.469C-7.602,2.479 -4.193,8.046 0,12.943" style="fill:rgb(15,101,177);"/>
            </g>
            <g transform="matrix(1,0,0,1,294.5732,212.9317)">
                <path d="M0,-11.103C11.825,-14.218 23.86,-16.811 35.463,-20.692C41.031,-22.556 46.186,-26.363 50.838,-30.137C66.661,-42.972 83.457,-53.553 104.773,-52.369C112.991,-51.912 131.823,-47.47 135.344,-40.34C141.992,-26.873 140.417,-9.478 135.013,6.308C135.379,0.176 135.982,-4.494 135.848,-9.143C135.701,-14.232 135.284,-19.391 134.262,-24.369C131.471,-37.948 126.138,-42.49 111.078,-45.197C82.448,-50.343 60.813,-39.428 44.023,-16.601C34.929,-4.233 26.308,8.745 15.594,19.589C2.952,32.385 -12.308,42.001 -31.45,42.308C-40.234,42.45 -48.751,41.314 -56.292,35.704C-49.177,36.317 -42.434,37.304 -35.679,37.394C-21.625,37.583 -9.296,32.623 1.42,23.625C8.482,17.693 10.097,12.351 6.828,3.478C4.887,-1.79 2.076,-6.738 0,-11.103" style="fill:rgb(237,28,36);fill-rule:nonzero;"/>
            </g>
            <g transform="matrix(1,0,0,1,389.2783,199.7724)">
                <path d="M0,-17.974L-0.002,-17.974C-4.382,-17.974 -7.752,-14.118 -7.693,-9.18C-7.637,-4.597 -3.843,-0.174 0.105,-0.09C4.375,0 8.184,-4.47 8.079,-9.452C7.977,-14.314 4.507,-17.974 0,-17.974" style="fill:rgb(237,28,36);"/>
            </g>
            <g transform="matrix(1,0,0,1,173.2437,228.1737)">
                <path d="M0,-60.532C2.001,-42.332 3.714,-25.708 18.479,-13.299C23.163,-9.363 24.466,-1.366 27.215,4.817C28.128,6.869 28.723,9.061 28.788,11.6C25.247,5.605 21.795,-0.443 18.123,-6.356C16.639,-8.746 15.054,-11.342 12.867,-12.984C2.326,-20.904 -2.304,-32.143 -5.37,-44.315C-7.54,-52.931 -9.532,-61.591 -11.593,-70.192C3.251,-72.132 24.376,-57.413 32.952,-37.794C23.298,-48.365 13.399,-56.118 0,-60.532" style="fill:rgb(237,28,36);fill-rule:nonzero;"/>
            </g>
            <g transform="matrix(1,0,0,1,208.3794,201.5769)">
                <path d="M0,-8.359C16.552,-12.729 17.88,-12.818 23.401,-9.787C20.486,-4.893 17.579,-0.013 14.295,5.497C22.695,1.901 25.769,-5.465 30.9,-11.958C26.437,-13.138 22.205,-13.856 18.069,-13.856C11.971,-13.856 6.087,-12.295 0,-8.359" style="fill:rgb(237,28,36);"/>
            </g>
        </g>
    </g>
</svg>
