<svg width="64" height="64" viewBox="0 0 64 64" fill="none" xmlns="http://www.w3.org/2000/svg">
<rect x="1" y="1" width="62" height="62" rx="31" stroke="#165D99" stroke-width="2"/>
<path d="M24.5 42C23.4583 42 22.5729 41.6354 21.8438 40.9062C21.1146 40.1771 20.75 39.2917 20.75 38.25H18.25V24.5C18.25 23.8125 18.4948 23.224 18.9844 22.7344C19.474 22.2448 20.0625 22 20.75 22H38.25V27H42L45.75 32V38.25H43.25C43.25 39.2917 42.8854 40.1771 42.1562 40.9062C41.4271 41.6354 40.5417 42 39.5 42C38.4583 42 37.5729 41.6354 36.8438 40.9062C36.1146 40.1771 35.75 39.2917 35.75 38.25H28.25C28.25 39.2917 27.8854 40.1771 27.1562 40.9062C26.4271 41.6354 25.5417 42 24.5 42ZM24.5 39.5C24.8542 39.5 25.151 39.3802 25.3906 39.1406C25.6302 38.901 25.75 38.6042 25.75 38.25C25.75 37.8958 25.6302 37.599 25.3906 37.3594C25.151 37.1198 24.8542 37 24.5 37C24.1458 37 23.849 37.1198 23.6094 37.3594C23.3698 37.599 23.25 37.8958 23.25 38.25C23.25 38.6042 23.3698 38.901 23.6094 39.1406C23.849 39.3802 24.1458 39.5 24.5 39.5ZM20.75 35.75H21.75C22.1042 35.375 22.5104 35.0729 22.9688 34.8438C23.4271 34.6146 23.9375 34.5 24.5 34.5C25.0625 34.5 25.5729 34.6146 26.0312 34.8438C26.4896 35.0729 26.8958 35.375 27.25 35.75H35.75V24.5H20.75V35.75ZM39.5 39.5C39.8542 39.5 40.151 39.3802 40.3906 39.1406C40.6302 38.901 40.75 38.6042 40.75 38.25C40.75 37.8958 40.6302 37.599 40.3906 37.3594C40.151 37.1198 39.8542 37 39.5 37C39.1458 37 38.849 37.1198 38.6094 37.3594C38.3698 37.599 38.25 37.8958 38.25 38.25C38.25 38.6042 38.3698 38.901 38.6094 39.1406C38.849 39.3802 39.1458 39.5 39.5 39.5ZM38.25 33.25H43.5625L40.75 29.5H38.25V33.25Z" fill="#165D99"/>
</svg>
