<svg width="64" height="64" viewBox="0 0 64 64" fill="none" xmlns="http://www.w3.org/2000/svg">
<rect x="1" y="1" width="62" height="62" rx="31" stroke="#165D99" stroke-width="2"/>
<path d="M24.377 39.6202C23.4395 38.6827 22.7051 37.5994 22.1738 36.3702C21.6426 35.141 21.377 33.8702 21.377 32.5577C21.377 31.2452 21.627 29.9483 22.127 28.6671C22.627 27.3858 23.4395 26.1827 24.5645 25.0577C25.2936 24.3285 26.1947 23.7035 27.2676 23.1827C28.3405 22.6619 29.6113 22.2504 31.0801 21.9483C32.5488 21.6462 34.2259 21.4639 36.1113 21.4014C37.9967 21.3389 40.1061 21.4119 42.4395 21.6202C42.6061 23.8285 42.6582 25.8598 42.5957 27.7139C42.5332 29.5681 42.3613 31.24 42.0801 32.7296C41.7988 34.2191 41.403 35.5212 40.8926 36.6358C40.3822 37.7504 39.752 38.6827 39.002 39.4327C37.8978 40.5369 36.7259 41.3442 35.4863 41.8546C34.2467 42.365 32.9811 42.6202 31.6895 42.6202C30.3353 42.6202 29.0124 42.3546 27.7207 41.8233C26.429 41.2921 25.3145 40.5577 24.377 39.6202ZM27.877 39.1202C28.4811 39.4744 29.1009 39.7296 29.7363 39.8858C30.3717 40.0421 31.0228 40.1202 31.6895 40.1202C32.6478 40.1202 33.5957 39.9275 34.5332 39.5421C35.4707 39.1567 36.3665 38.5369 37.2207 37.6827C37.5957 37.3077 37.9759 36.7816 38.3613 36.1046C38.7467 35.4275 39.0801 34.5421 39.3613 33.4483C39.6426 32.3546 39.8561 31.0316 40.002 29.4796C40.1478 27.9275 40.1686 26.0785 40.0645 23.9327C39.0436 23.891 37.8926 23.8754 36.6113 23.8858C35.3301 23.8962 34.054 23.9952 32.7832 24.1827C31.5124 24.3702 30.304 24.6723 29.1582 25.0889C28.0124 25.5056 27.0749 26.0785 26.3457 26.8077C25.4082 27.7452 24.7624 28.6723 24.4082 29.5889C24.054 30.5056 23.877 31.391 23.877 32.2452C23.877 33.4744 24.1113 34.5525 24.5801 35.4796C25.0488 36.4066 25.4603 37.0577 25.8145 37.4327C26.6895 35.766 27.8457 34.1671 29.2832 32.6358C30.7207 31.1046 32.3978 29.8494 34.3145 28.8702C32.8145 30.1827 31.5072 31.6671 30.3926 33.3233C29.278 34.9796 28.4395 36.9119 27.877 39.1202Z" fill="#165D99"/>
</svg>
